<svg xmlns="http://www.w3.org/2000/svg" xmlns:xlink="http://www.w3.org/1999/xlink" width="1080" zoomAndPan="magnify" viewBox="0 0 810 809.999993" height="1080" preserveAspectRatio="xMidYMid meet" version="1.0"><defs><clipPath id="bc6b94163d"><path d="M 76.417969 1 L 733 1 L 733 649 L 76.417969 649 Z M 76.417969 1 " clip-rule="nonzero"/></clipPath></defs><g clip-path="url(#bc6b94163d)"><path fill="#ffffff" d="M 417.640625 648.097656 L 732.980469 4.339844 L 406.308594 187.617188 L 76.582031 1.289062 Z M 417.640625 648.097656 " fill-opacity="1" fill-rule="nonzero"/></g><path fill="#ffffff" d="M 77.019531 168.875 C 77.019531 167.132812 77.671875 165.386719 78.980469 164.078125 C 81.160156 162.117188 84.210938 161.683594 86.824219 162.992188 L 406.527344 343.433594 L 722.957031 166.257812 C 725.574219 164.734375 728.625 165.167969 730.804688 167.132812 C 732.980469 169.09375 733.417969 172.144531 732.109375 174.757812 L 423.304688 805.007812 C 422.214844 807.1875 420.035156 808.710938 417.640625 808.710938 C 415.242188 808.710938 412.84375 807.40625 411.753906 805.226562 L 77.671875 171.925781 C 77.234375 171.054688 77.019531 169.964844 77.019531 168.875 Z M 711.1875 187.835938 L 409.792969 356.730469 C 407.832031 357.816406 405.4375 357.816406 403.472656 356.730469 L 99.683594 185.4375 L 417.203125 787.789062 Z M 711.1875 187.835938 " fill-opacity="1" fill-rule="nonzero"/></svg>